<svg width="70" height="70" viewBox="0 0 70 70" version="1.1" xmlns="http://www.w3.org/2000/svg" xmlns:xlink="http://www.w3.org/1999/xlink">
<title>corozo</title>
<desc>Created using Figma</desc>
<g id="Canvas" transform="translate(-9038 -3445)">
<g id="corozo">
<g id="cor ozo">
<use xlink:href="#path0_fill" transform="translate(9056.46 3470.28)" fill="#001F49"/>
<use xlink:href="#path1_fill" transform="translate(9056.46 3470.28)" fill="#001F49"/>
<use xlink:href="#path2_fill" transform="translate(9056.46 3470.28)" fill="#001F49"/>
<use xlink:href="#path3_fill" transform="translate(9056.46 3470.28)" fill="#001F49"/>
<use xlink:href="#path4_fill" transform="translate(9056.46 3470.28)" fill="#001F49"/>
<use xlink:href="#path5_fill" transform="translate(9056.46 3470.28)" fill="#001F49"/>
</g>
<g id="Ellipse 2 (Stroke)">
<use xlink:href="#path6_fill" transform="translate(9041.82 3448.82)" fill="#001F49"/>
</g>
<g id="Ellipse 2 (Stroke)">
<use xlink:href="#path7_fill" transform="translate(9038 3445)" fill="#001F49"/>
</g>
</g>
</g>
<defs>
<path id="path0_fill" d="M 7.28509 4.97891C 6.92873 5.54909 6.45527 5.98691 5.86473 6.29236C 5.28436 6.58764 4.61236 6.73527 3.84873 6.73527C 3.27855 6.73527 2.75927 6.65382 2.29091 6.49091C 1.82255 6.31782 1.41527 6.08364 1.06909 5.78836C 0.733091 5.48291 0.468364 5.12655 0.274909 4.71927C 0.0916363 4.30182 0 3.85382 0 3.37527C 0 2.89673 0.0916363 2.45382 0.274909 2.04655C 0.468364 1.62909 0.733091 1.27273 1.06909 0.977454C 1.41527 0.672 1.82255 0.432727 2.29091 0.259636C 2.75927 0.0865451 3.27855 0 3.84873 0C 4.55127 0 5.18255 0.132364 5.74255 0.397091C 6.31273 0.651636 6.77091 1.01818 7.11709 1.49673L 6.32291 2.04655C 6.05818 1.69018 5.712 1.41527 5.28436 1.22182C 4.86691 1.01818 4.38836 0.916364 3.84873 0.916364C 3.43127 0.916364 3.04945 0.977455 2.70327 1.09964C 2.36727 1.22182 2.072 1.39491 1.81745 1.61891C 1.56291 1.83273 1.36436 2.09236 1.22182 2.39782C 1.08945 2.69309 1.02327 3.01382 1.02327 3.36C 1.02327 3.70618 1.09455 4.032 1.23709 4.33745C 1.37964 4.63273 1.57309 4.89236 1.81745 5.11636C 2.072 5.33018 2.37236 5.49818 2.71855 5.62036C 3.06473 5.74254 3.44145 5.80364 3.84873 5.80364C 4.96873 5.80364 5.84945 5.34545 6.49091 4.42909L 7.28509 4.97891Z"/>
<path id="path1_fill" d="M 16.59 5.80364C 17.0278 5.80364 17.4249 5.74254 17.7813 5.62036C 18.1376 5.488 18.4431 5.31491 18.6976 5.10109C 18.9522 4.87709 19.1456 4.61745 19.278 4.32218C 19.4104 4.01673 19.4765 3.696 19.4765 3.36C 19.4765 3.024 19.4053 2.70836 19.2627 2.41309C 19.1304 2.10764 18.9369 1.848 18.6824 1.63418C 18.438 1.41018 18.1376 1.23709 17.7813 1.11491C 17.4249 0.982545 17.0278 0.916364 16.59 0.916364C 16.1522 0.916364 15.7551 0.982545 15.3987 1.11491C 15.0525 1.23709 14.7522 1.41018 14.4976 1.63418C 14.2533 1.848 14.0598 2.10255 13.9173 2.39782C 13.7849 2.69309 13.7187 3.01382 13.7187 3.36C 13.7187 3.70618 13.7849 4.02691 13.9173 4.32218C 14.0598 4.61745 14.2533 4.87709 14.4976 5.10109C 14.7522 5.31491 15.0525 5.488 15.3987 5.62036C 15.7551 5.74254 16.1522 5.80364 16.59 5.80364ZM 16.59 6.73527C 16.0096 6.73527 15.4802 6.64873 15.0016 6.47564C 14.5231 6.30254 14.1107 6.06327 13.7645 5.75782C 13.4285 5.45236 13.1638 5.096 12.9704 4.68873C 12.7871 4.27127 12.6955 3.82836 12.6955 3.36C 12.6955 2.89164 12.7871 2.45382 12.9704 2.04655C 13.1638 1.62909 13.4285 1.27273 13.7645 0.977454C 14.1107 0.672 14.5231 0.432727 15.0016 0.259636C 15.4802 0.0865451 16.0096 0 16.59 0C 17.1805 0 17.7151 0.0865451 18.1936 0.259636C 18.6722 0.432727 19.0795 0.672 19.4155 0.977454C 19.7616 1.27273 20.0264 1.624 20.2096 2.03127C 20.4031 2.43855 20.4998 2.88145 20.4998 3.36C 20.4998 3.83855 20.4031 4.28145 20.2096 4.68873C 20.0264 5.096 19.7616 5.45236 19.4155 5.75782C 19.0795 6.06327 18.6722 6.30254 18.1936 6.47564C 17.7151 6.64873 17.1805 6.73527 16.59 6.73527Z"/>
<path id="path2_fill" d="M 30.6674 2.82545C 31.3699 2.82545 31.7212 2.53527 31.7212 1.95491C 31.7212 1.38473 31.3699 1.09964 30.6674 1.09964L 27.2769 1.09964L 27.2769 2.82545L 30.6674 2.82545ZM 27.2769 6.53673L 26.2841 6.53673L 26.2841 0.183272L 30.6674 0.183272C 31.319 0.183272 31.8281 0.341091 32.1947 0.656727C 32.5612 0.962182 32.7445 1.39491 32.7445 1.95491C 32.7445 2.40291 32.6019 2.79491 32.3169 3.13091C 32.0419 3.45673 31.6601 3.66036 31.1714 3.74182L 32.943 6.53673L 31.8587 6.53673L 30.0565 3.75709L 27.2769 3.75709L 27.2769 6.53673Z"/>
<path id="path3_fill" d="M 4.46131 19.8036C 4.89913 19.8036 5.29622 19.7425 5.65258 19.6204C 6.00894 19.488 6.3144 19.3149 6.56894 19.1011C 6.82349 18.8771 7.01694 18.6175 7.14931 18.3222C 7.28167 18.0167 7.34785 17.696 7.34785 17.36C 7.34785 17.024 7.27658 16.7084 7.13403 16.4131C 7.00167 16.1076 6.80822 15.848 6.55367 15.6342C 6.30931 15.4102 6.00894 15.2371 5.65258 15.1149C 5.29622 14.9825 4.89913 14.9164 4.46131 14.9164C 4.02349 14.9164 3.6264 14.9825 3.27003 15.1149C 2.92385 15.2371 2.62349 15.4102 2.36894 15.6342C 2.12458 15.848 1.93113 16.1025 1.78858 16.3978C 1.65622 16.6931 1.59003 17.0138 1.59003 17.36C 1.59003 17.7062 1.65622 18.0269 1.78858 18.3222C 1.93113 18.6175 2.12458 18.8771 2.36894 19.1011C 2.62349 19.3149 2.92385 19.488 3.27003 19.6204C 3.6264 19.7425 4.02349 19.8036 4.46131 19.8036ZM 4.46131 20.7353C 3.88094 20.7353 3.35149 20.6487 2.87294 20.4756C 2.3944 20.3025 1.98203 20.0633 1.63585 19.7578C 1.29985 19.4524 1.03513 19.096 0.841671 18.6887C 0.658398 18.2713 0.566761 17.8284 0.566761 17.36C 0.566761 16.8916 0.658398 16.4538 0.841671 16.0465C 1.03513 15.6291 1.29985 15.2727 1.63585 14.9775C 1.98203 14.672 2.3944 14.4327 2.87294 14.2596C 3.35149 14.0865 3.88094 14 4.46131 14C 5.05185 14 5.5864 14.0865 6.06494 14.2596C 6.54349 14.4327 6.95076 14.672 7.28676 14.9775C 7.63294 15.2727 7.89767 15.624 8.08094 16.0313C 8.2744 16.4385 8.37113 16.8815 8.37113 17.36C 8.37113 17.8385 8.2744 18.2815 8.08094 18.6887C 7.89767 19.096 7.63294 19.4524 7.28676 19.7578C 6.95076 20.0633 6.54349 20.3025 6.06494 20.4756C 5.5864 20.6487 5.05185 20.7353 4.46131 20.7353Z"/>
<path id="path4_fill" d="M 17.4391 15.0996L 13.682 15.0996L 13.682 14.168L 19.2718 14.168L 15.1176 19.6204L 19.2413 19.6204L 19.2413 20.5367L 13.3154 20.5367L 17.4391 15.0996Z"/>
<path id="path5_fill" d="M 28.495 19.8036C 28.9328 19.8036 29.3299 19.7425 29.6862 19.6204C 30.0426 19.488 30.3481 19.3149 30.6026 19.1011C 30.8572 18.8771 31.0506 18.6175 31.183 18.3222C 31.3153 18.0167 31.3815 17.696 31.3815 17.36C 31.3815 17.024 31.3102 16.7084 31.1677 16.4131C 31.0353 16.1076 30.8419 15.848 30.5873 15.6342C 30.343 15.4102 30.0426 15.2371 29.6862 15.1149C 29.3299 14.9825 28.9328 14.9164 28.495 14.9164C 28.0572 14.9164 27.6601 14.9825 27.3037 15.1149C 26.9575 15.2371 26.6572 15.4102 26.4026 15.6342C 26.1582 15.848 25.9648 16.1025 25.8222 16.3978C 25.6899 16.6931 25.6237 17.0138 25.6237 17.36C 25.6237 17.7062 25.6899 18.0269 25.8222 18.3222C 25.9648 18.6175 26.1582 18.8771 26.4026 19.1011C 26.6572 19.3149 26.9575 19.488 27.3037 19.6204C 27.6601 19.7425 28.0572 19.8036 28.495 19.8036ZM 28.495 20.7353C 27.9146 20.7353 27.3852 20.6487 26.9066 20.4756C 26.4281 20.3025 26.0157 20.0633 25.6695 19.7578C 25.3335 19.4524 25.0688 19.096 24.8753 18.6887C 24.6921 18.2713 24.6004 17.8284 24.6004 17.36C 24.6004 16.8916 24.6921 16.4538 24.8753 16.0465C 25.0688 15.6291 25.3335 15.2727 25.6695 14.9775C 26.0157 14.672 26.4281 14.4327 26.9066 14.2596C 27.3852 14.0865 27.9146 14 28.495 14C 29.0855 14 29.6201 14.0865 30.0986 14.2596C 30.5772 14.4327 30.9844 14.672 31.3204 14.9775C 31.6666 15.2727 31.9313 15.624 32.1146 16.0313C 32.3081 16.4385 32.4048 16.8815 32.4048 17.36C 32.4048 17.8385 32.3081 18.2815 32.1146 18.6887C 31.9313 19.096 31.6666 19.4524 31.3204 19.7578C 30.9844 20.0633 30.5772 20.3025 30.0986 20.4756C 29.6201 20.6487 29.0855 20.7353 28.495 20.7353Z"/>
<path id="path6_fill" fill-rule="evenodd" d="M 31.1818 61.0909C 47.7002 61.0909 61.0909 47.7002 61.0909 31.1818C 61.0909 14.6635 47.7002 1.27273 31.1818 1.27273C 14.6635 1.27273 1.27273 14.6635 1.27273 31.1818C 1.27273 47.7002 14.6635 61.0909 31.1818 61.0909ZM 31.1818 62.3636C 48.4031 62.3636 62.3636 48.4031 62.3636 31.1818C 62.3636 13.9606 48.4031 0 31.1818 0C 13.9606 0 0 13.9606 0 31.1818C 0 48.4031 13.9606 62.3636 31.1818 62.3636Z"/>
<path id="path7_fill" fill-rule="evenodd" d="M 35 68.7273C 53.6271 68.7273 68.7273 53.6271 68.7273 35C 68.7273 16.3729 53.6271 1.27273 35 1.27273C 16.3729 1.27273 1.27273 16.3729 1.27273 35C 1.27273 53.6271 16.3729 68.7273 35 68.7273ZM 35 70C 54.33 70 70 54.33 70 35C 70 15.67 54.33 0 35 0C 15.67 0 0 15.67 0 35C 0 54.33 15.67 70 35 70Z"/>
</defs>
</svg>
