<svg width="155" height="208" viewBox="0 0 155 208" version="1.1" xmlns="http://www.w3.org/2000/svg" xmlns:xlink="http://www.w3.org/1999/xlink">
<title>Group</title>
<desc>Created using Figma</desc>
<g id="Canvas" transform="translate(-8140 -3730)">
<g id="Group">
<g id="Group">
<g id="corozo DESIGN SYSTEM">
<use xlink:href="#path0_fill" transform="translate(8140 3895)" fill="#FFFFFF"/>
<use xlink:href="#path1_fill" transform="translate(8140 3895)" fill="#FFFFFF"/>
<use xlink:href="#path2_fill" transform="translate(8140 3895)" fill="#FFFFFF"/>
<use xlink:href="#path3_fill" transform="translate(8140 3895)" fill="#FFFFFF"/>
<use xlink:href="#path4_fill" transform="translate(8140 3895)" fill="#FFFFFF"/>
<use xlink:href="#path5_fill" transform="translate(8140 3895)" fill="#FFFFFF"/>
<use xlink:href="#path6_fill" transform="translate(8140 3895)" fill="#FFFFFF"/>
<use xlink:href="#path7_fill" transform="translate(8140 3895)" fill="#FFFFFF"/>
<use xlink:href="#path8_fill" transform="translate(8140 3895)" fill="#FFFFFF"/>
<use xlink:href="#path9_fill" transform="translate(8140 3895)" fill="#FFFFFF"/>
<use xlink:href="#path10_fill" transform="translate(8140 3895)" fill="#FFFFFF"/>
<use xlink:href="#path11_fill" transform="translate(8140 3895)" fill="#FFFFFF"/>
<use xlink:href="#path12_fill" transform="translate(8140 3895)" fill="#FFFFFF"/>
<use xlink:href="#path13_fill" transform="translate(8140 3895)" fill="#FFFFFF"/>
<use xlink:href="#path14_fill" transform="translate(8140 3895)" fill="#FFFFFF"/>
<use xlink:href="#path15_fill" transform="translate(8140 3895)" fill="#FFFFFF"/>
<use xlink:href="#path16_fill" transform="translate(8140 3895)" fill="#FFFFFF"/>
<use xlink:href="#path17_fill" transform="translate(8140 3895)" fill="#FFFFFF"/>
</g>
<g id="Vector (Stroke)">
<use xlink:href="#path18_fill" transform="translate(8141.62 3912.24)" fill="#FFFFFF"/>
</g>
</g>
<g id="Group">
<g id="cor ozo">
<use xlink:href="#path19_fill" transform="translate(8187.28 3776.95)" fill="#FFFFFF"/>
<use xlink:href="#path20_fill" transform="translate(8187.28 3776.95)" fill="#FFFFFF"/>
<use xlink:href="#path21_fill" transform="translate(8187.28 3776.95)" fill="#FFFFFF"/>
<use xlink:href="#path22_fill" transform="translate(8187.28 3776.95)" fill="#FFFFFF"/>
<use xlink:href="#path23_fill" transform="translate(8187.28 3776.95)" fill="#FFFFFF"/>
<use xlink:href="#path24_fill" transform="translate(8187.28 3776.95)" fill="#FFFFFF"/>
</g>
<g id="Ellipse 2 (Stroke)">
<use xlink:href="#path25_fill" transform="translate(8160.09 3737.09)" fill="#FFFFFF"/>
</g>
<g id="Ellipse 2 (Stroke)">
<use xlink:href="#path26_fill" transform="translate(8153 3730)" fill="#FFFFFF"/>
</g>
</g>
</g>
</g>
<defs>
<path id="path0_fill" d="M 37.8704 6.65411C 37.393 7.41614 36.7586 8.00126 35.9674 8.40949C 35.1898 8.80411 34.2894 9.00142 33.2662 9.00142C 32.5023 9.00142 31.8065 8.89256 31.179 8.67484C 30.5515 8.44351 30.0058 8.13054 29.542 7.73592C 29.0918 7.32769 28.7371 6.85142 28.4779 6.30712C 28.2323 5.74921 28.1095 5.15047 28.1095 4.51092C 28.1095 3.87136 28.2323 3.27943 28.4779 2.73513C 28.7371 2.17722 29.0918 1.70095 29.542 1.30633C 30.0058 0.898101 30.5515 0.578322 31.179 0.346993C 31.8065 0.115664 32.5023 0 33.2662 0C 34.2075 0 35.0534 0.176899 35.8037 0.530696C 36.5676 0.870886 37.1815 1.36076 37.6453 2.00032L 36.5813 2.73513C 36.2266 2.25886 35.7627 1.89146 35.1898 1.63291C 34.6305 1.36076 33.9893 1.22468 33.2662 1.22468C 32.7069 1.22468 32.1953 1.30633 31.7315 1.46962C 31.2813 1.63291 30.8857 1.86424 30.5446 2.16361C 30.2036 2.44937 29.9376 2.79636 29.7466 3.20459C 29.5692 3.59921 29.4806 4.02785 29.4806 4.49051C 29.4806 4.95316 29.5761 5.38861 29.767 5.79684C 29.958 6.19146 30.2172 6.53845 30.5446 6.83782C 30.8857 7.12358 31.2881 7.3481 31.752 7.51139C 32.2158 7.67468 32.7206 7.75633 33.2662 7.75633C 34.7669 7.75633 35.9469 7.14399 36.8064 5.9193L 37.8704 6.65411Z"/>
<path id="path1_fill" d="M 50.3376 7.75633C 50.9242 7.75633 51.4563 7.67468 51.9337 7.51139C 52.4112 7.33449 52.8205 7.10317 53.1615 6.81741C 53.5026 6.51804 53.7618 6.17104 53.9391 5.77642C 54.1165 5.3682 54.2051 4.93956 54.2051 4.49051C 54.2051 4.04146 54.1096 3.61962 53.9187 3.225C 53.7413 2.81677 53.4821 2.46978 53.1411 2.18402C 52.8136 1.88465 52.4112 1.65332 51.9337 1.49003C 51.4563 1.31313 50.9242 1.22468 50.3376 1.22468C 49.751 1.22468 49.219 1.31313 48.7415 1.49003C 48.2776 1.65332 47.8752 1.88465 47.5342 2.18402C 47.2067 2.46978 46.9475 2.80997 46.7566 3.20459C 46.5792 3.59921 46.4905 4.02785 46.4905 4.49051C 46.4905 4.95316 46.5792 5.3818 46.7566 5.77642C 46.9475 6.17104 47.2067 6.51804 47.5342 6.81741C 47.8752 7.10317 48.2776 7.33449 48.7415 7.51139C 49.219 7.67468 49.751 7.75633 50.3376 7.75633ZM 50.3376 9.00142C 49.56 9.00142 48.8506 8.88576 48.2094 8.65443C 47.5683 8.4231 47.0158 8.10332 46.5519 7.69509C 46.1017 7.28687 45.747 6.8106 45.4878 6.2663C 45.2423 5.70839 45.1195 5.11646 45.1195 4.49051C 45.1195 3.86456 45.2423 3.27943 45.4878 2.73513C 45.747 2.17722 46.1017 1.70095 46.5519 1.30633C 47.0158 0.898101 47.5683 0.578322 48.2094 0.346993C 48.8506 0.115664 49.56 0 50.3376 0C 51.1288 0 51.8451 0.115664 52.4862 0.346993C 53.1274 0.578322 53.6731 0.898101 54.1233 1.30633C 54.5871 1.70095 54.9418 2.17041 55.1874 2.71472C 55.4466 3.25902 55.5762 3.85095 55.5762 4.49051C 55.5762 5.13006 55.4466 5.72199 55.1874 6.2663C 54.9418 6.8106 54.5871 7.28687 54.1233 7.69509C 53.6731 8.10332 53.1274 8.4231 52.4862 8.65443C 51.8451 8.88576 51.1288 9.00142 50.3376 9.00142Z"/>
<path id="path2_fill" d="M 69.1992 3.77611C 70.1405 3.77611 70.6111 3.38829 70.6111 2.61266C 70.6111 1.85063 70.1405 1.46962 69.1992 1.46962L 64.6564 1.46962L 64.6564 3.77611L 69.1992 3.77611ZM 64.6564 8.73608L 63.3262 8.73608L 63.3262 0.244936L 69.1992 0.244936C 70.0723 0.244936 70.7544 0.455855 71.2455 0.87769C 71.7366 1.28592 71.9822 1.86424 71.9822 2.61266C 71.9822 3.21139 71.7912 3.73528 71.4092 4.18434C 71.0409 4.61978 70.5293 4.89193 69.8745 5.00079L 72.2482 8.73608L 70.7953 8.73608L 68.3806 5.0212L 64.6564 5.0212L 64.6564 8.73608Z"/>
<path id="path3_fill" d="M 84.1977 7.75633C 84.7843 7.75633 85.3163 7.67468 85.7938 7.51139C 86.2713 7.33449 86.6805 7.10317 87.0216 6.81741C 87.3626 6.51804 87.6218 6.17104 87.7992 5.77642C 87.9765 5.3682 88.0652 4.93956 88.0652 4.49051C 88.0652 4.04146 87.9697 3.61962 87.7787 3.225C 87.6014 2.81677 87.3422 2.46978 87.0011 2.18402C 86.6737 1.88465 86.2713 1.65332 85.7938 1.49003C 85.3163 1.31313 84.7843 1.22468 84.1977 1.22468C 83.6111 1.22468 83.079 1.31313 82.6015 1.49003C 82.1377 1.65332 81.7353 1.88465 81.3942 2.18402C 81.0668 2.46978 80.8076 2.80997 80.6166 3.20459C 80.4393 3.59921 80.3506 4.02785 80.3506 4.49051C 80.3506 4.95316 80.4393 5.3818 80.6166 5.77642C 80.8076 6.17104 81.0668 6.51804 81.3942 6.81741C 81.7353 7.10317 82.1377 7.33449 82.6015 7.51139C 83.079 7.67468 83.6111 7.75633 84.1977 7.75633ZM 84.1977 9.00142C 83.4201 9.00142 82.7107 8.88576 82.0695 8.65443C 81.4283 8.4231 80.8758 8.10332 80.412 7.69509C 79.9618 7.28687 79.6071 6.8106 79.3479 6.2663C 79.1024 5.70839 78.9796 5.11646 78.9796 4.49051C 78.9796 3.86456 79.1024 3.27943 79.3479 2.73513C 79.6071 2.17722 79.9618 1.70095 80.412 1.30633C 80.8758 0.898101 81.4283 0.578322 82.0695 0.346993C 82.7107 0.115664 83.4201 0 84.1977 0C 84.9889 0 85.7051 0.115664 86.3463 0.346993C 86.9875 0.578322 87.5332 0.898101 87.9834 1.30633C 88.4472 1.70095 88.8019 2.17041 89.0474 2.71472C 89.3066 3.25902 89.4362 3.85095 89.4362 4.49051C 89.4362 5.13006 89.3066 5.72199 89.0474 6.2663C 88.8019 6.8106 88.4472 7.28687 87.9834 7.69509C 87.5332 8.10332 86.9875 8.4231 86.3463 8.65443C 85.7051 8.88576 84.9889 9.00142 84.1977 9.00142Z"/>
<path id="path4_fill" d="M 101.586 1.46962L 96.552 1.46962L 96.552 0.224525L 104.041 0.224525L 98.4755 7.51139L 104.001 7.51139L 104.001 8.73608L 96.0609 8.73608L 101.586 1.46962Z"/>
<path id="path5_fill" d="M 116.399 7.75633C 116.986 7.75633 117.518 7.67468 117.995 7.51139C 118.473 7.33449 118.882 7.10317 119.223 6.81741C 119.564 6.51804 119.823 6.17104 120.001 5.77642C 120.178 5.3682 120.267 4.93956 120.267 4.49051C 120.267 4.04146 120.171 3.61962 119.98 3.225C 119.803 2.81677 119.544 2.46978 119.203 2.18402C 118.875 1.88465 118.473 1.65332 117.995 1.49003C 117.518 1.31313 116.986 1.22468 116.399 1.22468C 115.813 1.22468 115.28 1.31313 114.803 1.49003C 114.339 1.65332 113.937 1.88465 113.596 2.18402C 113.268 2.46978 113.009 2.80997 112.818 3.20459C 112.641 3.59921 112.552 4.02785 112.552 4.49051C 112.552 4.95316 112.641 5.3818 112.818 5.77642C 113.009 6.17104 113.268 6.51804 113.596 6.81741C 113.937 7.10317 114.339 7.33449 114.803 7.51139C 115.28 7.67468 115.813 7.75633 116.399 7.75633ZM 116.399 9.00142C 115.622 9.00142 114.912 8.88576 114.271 8.65443C 113.63 8.4231 113.077 8.10332 112.613 7.69509C 112.163 7.28687 111.809 6.8106 111.549 6.2663C 111.304 5.70839 111.181 5.11646 111.181 4.49051C 111.181 3.86456 111.304 3.27943 111.549 2.73513C 111.809 2.17722 112.163 1.70095 112.613 1.30633C 113.077 0.898101 113.63 0.578322 114.271 0.346993C 114.912 0.115664 115.622 0 116.399 0C 117.19 0 117.907 0.115664 118.548 0.346993C 119.189 0.578322 119.735 0.898101 120.185 1.30633C 120.649 1.70095 121.003 2.17041 121.249 2.71472C 121.508 3.25902 121.638 3.85095 121.638 4.49051C 121.638 5.13006 121.508 5.72199 121.249 6.2663C 121.003 6.8106 120.649 7.28687 120.185 7.69509C 119.735 8.10332 119.189 8.4231 118.548 8.65443C 117.907 8.88576 117.19 9.00142 116.399 9.00142Z"/>
<path id="path6_fill" d="M 13.6284 36.1214C 13.6284 36.9242 13.4852 37.7203 13.1987 38.5095C 12.9259 39.2987 12.503 40.0131 11.93 40.6527C 11.3707 41.2786 10.6545 41.7889 9.78137 42.1835C 8.92192 42.5646 7.91241 42.7551 6.75283 42.7551L 2.55789 42.7551C 2.2032 42.7551 1.80075 42.7619 1.35057 42.7755C 0.900377 42.8027 0.463831 42.8299 0.0409261 42.8571C 0.013642 42.721 0 42.6122 0 42.5305C 0 42.34 0.0750314 42.2312 0.225094 42.204C 0.729851 42.0815 1.09137 41.9658 1.30964 41.857C 1.52791 41.7481 1.63705 41.5712 1.63705 41.3263L 1.63705 30.9369C 1.63705 30.6647 1.53473 30.4742 1.3301 30.3653C 1.12547 30.2565 0.757135 30.1544 0.225094 30.0592C 0.143242 30.0456 0.0818524 30.0047 0.0409261 29.9367C 0.013642 29.8687 0 29.7938 0 29.7122C 0 29.6305 0.013642 29.5217 0.0409261 29.3856C 0.32741 29.4128 0.572967 29.4332 0.777599 29.4468C 0.995872 29.4468 1.2005 29.4536 1.39149 29.4672C 1.58248 29.4809 1.76665 29.4877 1.944 29.4877C 2.13499 29.4877 2.3328 29.4877 2.53743 29.4877L 6.73237 29.4877C 7.8783 29.4877 8.88099 29.6646 9.74045 30.0184C 10.6135 30.3722 11.3366 30.8484 11.9095 31.4472C 12.4825 32.0459 12.9122 32.7467 13.1987 33.5495C 13.4852 34.3524 13.6284 35.2097 13.6284 36.1214ZM 11.4798 36.5092C 11.4798 34.4136 10.9546 32.8623 9.90415 31.8554C 8.86735 30.8348 7.34626 30.3245 5.34088 30.3245L 3.56058 30.3245L 3.56058 41.1834C 3.56058 41.3195 3.59469 41.4351 3.6629 41.5304C 3.73111 41.6256 3.84707 41.7005 4.01077 41.7549C 4.17448 41.8093 4.39957 41.8502 4.68606 41.8774C 4.97254 41.9046 5.33405 41.9182 5.7706 41.9182C 6.82104 41.9182 7.70778 41.7957 8.43081 41.5508C 9.15384 41.2922 9.74045 40.9316 10.1906 40.469C 10.6408 39.9927 10.9682 39.4212 11.1729 38.7544C 11.3775 38.0877 11.4798 37.3392 11.4798 36.5092Z"/>
<path id="path7_fill" d="M 19.0683 30.3245L 19.0683 35.5498L 22.2605 35.5498C 22.5334 35.5498 22.7243 35.4206 22.8335 35.162C 22.9563 34.8899 23.0518 34.5633 23.12 34.1823C 23.1609 34.0054 23.2837 33.9169 23.4883 33.9169C 23.5292 33.9169 23.5838 33.9237 23.652 33.9373C 23.7202 33.951 23.7748 33.9646 23.8157 33.9782C 23.7884 34.2775 23.7611 34.6177 23.7339 34.9987C 23.7202 35.3798 23.7134 35.7131 23.7134 35.9989C 23.7134 36.2302 23.7202 36.516 23.7339 36.8562C 23.7475 37.1828 23.7748 37.557 23.8157 37.9788C 23.7066 38.006 23.6043 38.0196 23.5088 38.0196C 23.2905 38.0196 23.1609 37.9312 23.12 37.7543C 23.0518 37.3733 22.9563 37.0535 22.8335 36.7949C 22.7243 36.5228 22.5334 36.3867 22.2605 36.3867L 19.0683 36.3867L 19.0683 41.2038C 19.0683 41.4896 19.2524 41.6801 19.6208 41.7753C 19.9891 41.8706 20.5962 41.9182 21.442 41.9182L 22.5675 41.9182C 22.9631 41.9182 23.3041 41.8638 23.5906 41.7549C 23.8907 41.6324 24.1499 41.4759 24.3682 41.2854C 24.6001 41.0813 24.8048 40.8432 24.9821 40.571C 25.1595 40.2989 25.33 39.9995 25.4937 39.6729C 25.5346 39.5777 25.6369 39.5301 25.8006 39.5301C 25.8689 39.5301 25.9371 39.5505 26.0053 39.5913C 26.0871 39.6321 26.1622 39.6729 26.2304 39.7138C 26.1076 39.9723 25.9985 40.2853 25.903 40.6527C 25.8211 41.0065 25.7393 41.3467 25.6574 41.6733C 25.5755 41.9998 25.4869 42.2788 25.3914 42.5101C 25.3095 42.7415 25.2004 42.8571 25.064 42.8571C 24.9548 42.8571 24.7979 42.8503 24.5933 42.8367C 24.3887 42.8231 24.1636 42.8095 23.918 42.7959C 23.6861 42.7959 23.4474 42.7891 23.2018 42.7755C 22.9563 42.7619 22.7448 42.7551 22.5675 42.7551L 18.086 42.7551C 17.6904 42.7551 17.2675 42.7619 16.8173 42.7755C 16.3671 42.8027 15.9374 42.8299 15.5282 42.8571C 15.5009 42.721 15.4872 42.6122 15.4872 42.5305C 15.4872 42.34 15.5554 42.2312 15.6919 42.204C 16.2103 42.1087 16.5786 42.0066 16.7969 41.8978C 17.0288 41.7889 17.1447 41.5984 17.1447 41.3263L 17.1447 30.9369C 17.1447 30.6647 17.0424 30.481 16.8378 30.3858C 16.6468 30.2769 16.2648 30.168 15.6919 30.0592C 15.5554 30.032 15.4872 29.9163 15.4872 29.7122C 15.4872 29.6441 15.4872 29.5897 15.4872 29.5489C 15.5009 29.4945 15.5145 29.44 15.5282 29.3856C 16.1148 29.4264 16.6059 29.4536 17.0015 29.4672C 17.3971 29.4809 17.7518 29.4877 18.0656 29.4877L 22.0968 29.4877C 22.7107 29.4877 23.2428 29.4672 23.6929 29.4264C 24.1431 29.3856 24.4433 29.3652 24.5933 29.3652C 24.7707 29.3652 24.8866 29.4809 24.9412 29.7122C 25.0094 29.9299 25.064 30.1953 25.1049 30.5082C 25.1458 30.8212 25.1936 31.1546 25.2481 31.5084C 25.3027 31.8622 25.405 32.1616 25.5551 32.4065C 25.4459 32.4881 25.3232 32.529 25.1867 32.529C 25.0094 32.529 24.8934 32.4677 24.8389 32.3453C 24.6752 31.9915 24.5183 31.6921 24.3682 31.4472C 24.2182 31.1886 24.0408 30.9777 23.8362 30.8144C 23.6452 30.6511 23.4065 30.5286 23.12 30.447C 22.8471 30.3653 22.5061 30.3245 22.0968 30.3245L 19.0683 30.3245Z"/>
<path id="path8_fill" d="M 36.6148 32.6922C 36.4783 32.7195 36.376 32.7331 36.3078 32.7331C 36.1305 32.7331 36.0009 32.6991 35.919 32.631C 35.8372 32.563 35.7758 32.4881 35.7348 32.4065C 35.3802 31.6309 34.9572 31.0661 34.4661 30.7123C 33.975 30.3585 33.3066 30.1816 32.4607 30.1816C 32.1333 30.1816 31.8196 30.2293 31.5194 30.3245C 31.233 30.4062 30.9806 30.5354 30.7623 30.7123C 30.544 30.8756 30.3667 31.0797 30.2303 31.3247C 30.1075 31.5696 30.0461 31.8418 30.0461 32.1411C 30.0461 32.7807 30.3121 33.3046 30.8442 33.7128C 31.3898 34.121 32.1879 34.5361 33.2383 34.9579C 34.548 35.475 35.5098 36.0533 36.1236 36.6929C 36.7512 37.3188 37.065 38.0945 37.065 39.0198C 37.065 39.5777 36.9763 40.1016 36.7989 40.5915C 36.6352 41.0677 36.3692 41.4896 36.0009 41.857C 35.6462 42.2108 35.1823 42.4897 34.6094 42.6938C 34.0364 42.8979 33.3475 43 32.5426 43C 31.6968 43 30.926 42.9116 30.2303 42.7347C 29.5482 42.5578 28.9684 42.3264 28.4909 42.0407C 28.45 41.4691 28.3886 40.918 28.3067 40.3873C 28.2249 39.8566 28.1294 39.326 28.0202 38.7953C 28.1157 38.7544 28.2317 38.734 28.3681 38.734C 28.5318 38.734 28.6546 38.7748 28.7365 38.8565C 28.832 38.9245 28.9138 39.0402 28.982 39.2035C 29.3231 40.1832 29.7596 40.9044 30.2917 41.3671C 30.8373 41.8297 31.5945 42.0611 32.5631 42.0611C 32.9996 42.0611 33.3816 41.9998 33.709 41.8774C 34.0364 41.7549 34.3092 41.5848 34.5275 41.3671C 34.7458 41.1494 34.9095 40.9044 35.0186 40.6323C 35.1278 40.3601 35.1823 40.0676 35.1823 39.7546C 35.1823 39.047 34.9368 38.4891 34.4457 38.0809C 33.9682 37.6726 33.2793 37.3052 32.3789 36.9786C 31.7923 36.7609 31.2602 36.5364 30.7828 36.3051C 30.3053 36.0601 29.896 35.7812 29.555 35.4682C 29.2139 35.1552 28.9479 34.7946 28.7569 34.3864C 28.5796 33.9646 28.4909 33.4679 28.4909 32.8964C 28.4909 32.3929 28.5796 31.9234 28.7569 31.488C 28.9479 31.0389 29.2139 30.6511 29.555 30.3245C 29.9097 29.9979 30.3326 29.7394 30.8237 29.5489C 31.3148 29.3584 31.8673 29.2631 32.4812 29.2631C 33.1224 29.2631 33.7363 29.3244 34.3229 29.4468C 34.9095 29.5693 35.5711 29.7734 36.3078 30.0592C 36.3351 30.4674 36.3692 30.9097 36.4101 31.3859C 36.4647 31.8486 36.5329 32.284 36.6148 32.6922Z"/>
<path id="path9_fill" d="M 42.6464 41.3263C 42.6464 41.5984 42.7419 41.7889 42.9329 41.8978C 43.1239 41.993 43.4786 42.0951 43.997 42.204C 44.1334 42.2312 44.2016 42.34 44.2016 42.5305C 44.2016 42.6122 44.188 42.721 44.1607 42.8571C 43.7378 42.8299 43.3149 42.8027 42.892 42.7755C 42.4691 42.7619 42.0666 42.7551 41.6847 42.7551C 41.3163 42.7551 40.9071 42.7619 40.4569 42.7755C 40.0203 42.8027 39.6042 42.8299 39.2086 42.8571C 39.1813 42.721 39.1677 42.6122 39.1677 42.5305C 39.1677 42.34 39.2359 42.2312 39.3723 42.204C 39.8907 42.1087 40.2454 42.0066 40.4364 41.8978C 40.6274 41.7889 40.7229 41.5984 40.7229 41.3263L 40.7229 30.9369C 40.7229 30.6647 40.6274 30.4742 40.4364 30.3653C 40.2454 30.2429 39.8907 30.1408 39.3723 30.0592C 39.2905 30.0456 39.2359 30.0047 39.2086 29.9367C 39.1813 29.8687 39.1677 29.7938 39.1677 29.7122C 39.1677 29.6305 39.1813 29.5217 39.2086 29.3856C 39.6179 29.4128 40.0408 29.44 40.4773 29.4672C 40.9275 29.4809 41.33 29.4877 41.6847 29.4877C 42.0257 29.4877 42.4145 29.4809 42.8511 29.4672C 43.3012 29.44 43.7378 29.4128 44.1607 29.3856C 44.188 29.5217 44.2016 29.6305 44.2016 29.7122C 44.2016 29.9163 44.1334 30.032 43.997 30.0592C 43.4786 30.1408 43.1239 30.2429 42.9329 30.3653C 42.7419 30.4742 42.6464 30.6647 42.6464 30.9369L 42.6464 41.3263Z"/>
<path id="path10_fill" d="M 57.1316 42.653C 56.5177 42.7619 55.8902 42.8435 55.249 42.8979C 54.6078 42.966 53.8575 43 52.9981 43C 51.8248 43 50.8017 42.8231 49.9286 42.4693C 49.0691 42.1155 48.3529 41.6324 47.78 41.0201C 47.207 40.4078 46.7773 39.6866 46.4908 38.8565C 46.2179 38.0128 46.0815 37.1011 46.0815 36.1214C 46.0815 35.3049 46.2179 34.4884 46.4908 33.672C 46.7773 32.8555 47.2002 32.1207 47.7595 31.4676C 48.3325 30.8144 49.0487 30.2837 49.9081 29.8755C 50.7676 29.4536 51.7703 29.2427 52.9162 29.2427C 53.3255 29.2427 53.7143 29.2563 54.0826 29.2835C 54.4646 29.2972 54.8397 29.3312 55.2081 29.3856C 55.5764 29.44 55.9447 29.5081 56.3131 29.5897C 56.6951 29.6578 57.1043 29.7462 57.5409 29.8551C 57.5681 30.3313 57.6159 30.828 57.6841 31.3451C 57.766 31.8486 57.8683 32.3453 57.9911 32.8351C 57.9638 32.8623 57.9092 32.8828 57.8273 32.8964C 57.7455 32.91 57.6773 32.9168 57.6227 32.9168C 57.4044 32.9168 57.268 32.8283 57.2135 32.6514C 56.9679 31.7397 56.5518 31.0866 55.9652 30.6919C 55.3786 30.2973 54.5396 30.1 53.4482 30.1C 52.5751 30.1 51.8112 30.2429 51.1564 30.5286C 50.5015 30.8144 49.9559 31.209 49.5193 31.7125C 49.0964 32.2024 48.7758 32.7943 48.5576 33.4883C 48.3393 34.1687 48.2301 34.9103 48.2301 35.7131C 48.2301 36.6521 48.3666 37.5161 48.6394 38.3054C 48.9259 39.0946 49.3079 39.775 49.7853 40.3465C 50.2765 40.918 50.8494 41.3603 51.5042 41.6733C 52.1727 41.9862 52.8957 42.1427 53.6733 42.1427C 54.069 42.1427 54.4646 42.1155 54.8602 42.0611C 55.2695 42.0066 55.6105 41.9386 55.8834 41.857L 55.8834 38.734C 55.8834 38.3666 55.7742 38.1149 55.5559 37.9788C 55.3377 37.8291 54.9693 37.7203 54.4509 37.6522C 54.3418 37.6386 54.2668 37.591 54.2258 37.5093C 54.1849 37.4277 54.1644 37.346 54.1644 37.2644C 54.1644 37.1555 54.1781 37.0467 54.2054 36.9378C 54.601 36.965 55.0375 36.9922 55.515 37.0195C 55.9925 37.0331 56.4086 37.0399 56.7633 37.0399C 57.118 37.0399 57.5204 37.0331 57.9706 37.0195C 58.4344 36.9922 58.8369 36.965 59.1779 36.9378C 59.2052 37.0739 59.2188 37.1828 59.2188 37.2644C 59.2188 37.4005 59.1916 37.4957 59.137 37.5502C 59.0961 37.591 59.0415 37.6182 58.9733 37.6318C 58.5367 37.6862 58.2298 37.7815 58.0524 37.9176C 57.8887 38.04 57.8069 38.2373 57.8069 38.5095L 57.8069 42.1427C 57.8069 42.2652 57.7728 42.3672 57.7046 42.4489C 57.6364 42.5305 57.4454 42.5986 57.1316 42.653Z"/>
<path id="path11_fill" d="M 71.2494 39.5097L 71.2494 30.9777C 71.2494 30.6783 71.1403 30.4674 70.922 30.3449C 70.7037 30.2225 70.3354 30.1272 69.817 30.0592C 69.6669 30.0456 69.5919 29.9299 69.5919 29.7122C 69.5919 29.6305 69.6055 29.5217 69.6328 29.3856C 69.9739 29.4128 70.3217 29.44 70.6764 29.4672C 71.0311 29.4809 71.3654 29.4877 71.6791 29.4877C 71.9792 29.4877 72.293 29.4809 72.6204 29.4672C 72.9478 29.44 73.2684 29.4128 73.5822 29.3856C 73.6095 29.5217 73.6231 29.6305 73.6231 29.7122C 73.6231 29.9299 73.5549 30.0456 73.4185 30.0592C 72.9546 30.1272 72.6341 30.2225 72.4567 30.3449C 72.293 30.4674 72.2112 30.6647 72.2112 30.9369L 72.2112 42.9592C 72.1839 42.9728 72.1361 42.9796 72.0679 42.9796C 71.9997 42.9932 71.9451 43 71.9042 43C 71.8087 43 71.72 42.9728 71.6382 42.9184C 71.5563 42.8775 71.4609 42.7823 71.3517 42.6326L 63.0437 31.7125L 63.0437 41.3263C 63.0437 41.5984 63.1392 41.7889 63.3302 41.8978C 63.5212 42.0066 63.8895 42.1087 64.4352 42.204C 64.5716 42.2312 64.6398 42.34 64.6398 42.5305C 64.6398 42.6122 64.6262 42.721 64.5989 42.8571C 64.2578 42.8299 63.91 42.8027 63.5553 42.7755C 63.2142 42.7619 62.8936 42.7551 62.5935 42.7551C 62.3206 42.7551 62.0001 42.7619 61.6317 42.7755C 61.2634 42.8027 60.9292 42.8299 60.629 42.8571C 60.6017 42.721 60.5881 42.6122 60.5881 42.5305C 60.5881 42.34 60.6631 42.2312 60.8132 42.204C 61.3043 42.1087 61.6317 42.0066 61.7954 41.8978C 61.9728 41.7889 62.0615 41.5984 62.0615 41.3263L 62.0615 30.8348C 62.0615 30.6171 61.9796 30.4538 61.8159 30.3449C 61.6658 30.2225 61.3452 30.1272 60.8541 30.0592C 60.7041 30.032 60.629 29.9163 60.629 29.7122C 60.629 29.6441 60.6359 29.5829 60.6495 29.5285C 60.6495 29.4877 60.6563 29.44 60.67 29.3856C 60.9428 29.4128 61.202 29.4332 61.4476 29.4468C 61.6658 29.4604 61.8977 29.4741 62.1433 29.4877C 62.3889 29.4877 62.6071 29.4877 62.7981 29.4877C 63.1938 29.4877 63.453 29.5013 63.5757 29.5285C 63.7122 29.5557 63.8213 29.6237 63.9031 29.7326L 71.2494 39.5097Z"/>
<path id="path12_fill" d="M 88.452 32.6922C 88.3156 32.7195 88.2133 32.7331 88.1451 32.7331C 87.9677 32.7331 87.8381 32.6991 87.7563 32.631C 87.6744 32.563 87.613 32.4881 87.5721 32.4065C 87.2174 31.6309 86.7945 31.0661 86.3034 30.7123C 85.8123 30.3585 85.1438 30.1816 84.298 30.1816C 83.9706 30.1816 83.6568 30.2293 83.3567 30.3245C 83.0702 30.4062 82.8178 30.5354 82.5996 30.7123C 82.3813 30.8756 82.2039 31.0797 82.0675 31.3247C 81.9447 31.5696 81.8834 31.8418 81.8834 32.1411C 81.8834 32.7807 82.1494 33.3046 82.6814 33.7128C 83.2271 34.121 84.0251 34.5361 85.0756 34.9579C 86.3852 35.475 87.347 36.0533 87.9609 36.6929C 88.5884 37.3188 88.9022 38.0945 88.9022 39.0198C 88.9022 39.5777 88.8135 40.1016 88.6362 40.5915C 88.4725 41.0677 88.2064 41.4896 87.8381 41.857C 87.4834 42.2108 87.0196 42.4897 86.4466 42.6938C 85.8736 42.8979 85.1847 43 84.3798 43C 83.534 43 82.7633 42.9116 82.0675 42.7347C 81.3854 42.5578 80.8056 42.3264 80.3281 42.0407C 80.2872 41.4691 80.2258 40.918 80.144 40.3873C 80.0621 39.8566 79.9666 39.326 79.8575 38.7953C 79.953 38.7544 80.069 38.734 80.2054 38.734C 80.3691 38.734 80.4918 38.7748 80.5737 38.8565C 80.6692 38.9245 80.7511 39.0402 80.8193 39.2035C 81.1603 40.1832 81.5969 40.9044 82.1289 41.3671C 82.6746 41.8297 83.4317 42.0611 84.4003 42.0611C 84.8369 42.0611 85.2188 41.9998 85.5462 41.8774C 85.8737 41.7549 86.1465 41.5848 86.3648 41.3671C 86.583 41.1494 86.7468 40.9044 86.8559 40.6323C 86.965 40.3601 87.0196 40.0676 87.0196 39.7546C 87.0196 39.047 86.774 38.4891 86.2829 38.0809C 85.8054 37.6726 85.1165 37.3052 84.2161 36.9786C 83.6295 36.7609 83.0975 36.5364 82.62 36.3051C 82.1426 36.0601 81.7333 35.7812 81.3922 35.4682C 81.0512 35.1552 80.7852 34.7946 80.5942 34.3864C 80.4168 33.9646 80.3281 33.4679 80.3281 32.8964C 80.3281 32.3929 80.4168 31.9234 80.5942 31.488C 80.7852 31.0389 81.0512 30.6511 81.3922 30.3245C 81.7469 29.9979 82.1698 29.7394 82.6609 29.5489C 83.1521 29.3584 83.7046 29.2631 84.3185 29.2631C 84.9596 29.2631 85.5735 29.3244 86.1601 29.4468C 86.7467 29.5693 87.4084 29.7734 88.1451 30.0592C 88.1723 30.4674 88.2064 30.9097 88.2474 31.3859C 88.3019 31.8486 88.3702 32.284 88.452 32.6922Z"/>
<path id="path13_fill" d="M 94.9387 36.8766L 91.5213 30.7532C 91.3985 30.5354 91.228 30.379 91.0097 30.2837C 90.8051 30.1884 90.5254 30.1136 90.1707 30.0592C 90.1025 30.0456 90.048 30.0047 90.007 29.9367C 89.9798 29.8687 89.9661 29.787 89.9661 29.6918C 89.9661 29.6646 89.9661 29.6373 89.9661 29.6101C 89.9661 29.5693 89.9729 29.5353 89.9866 29.5081C 89.9866 29.4672 89.9934 29.4264 90.007 29.3856C 90.3072 29.4128 90.6892 29.44 91.153 29.4672C 91.6168 29.4809 92.067 29.4877 92.5035 29.4877C 92.6673 29.4877 92.8582 29.4877 93.0765 29.4877C 93.2948 29.4741 93.5199 29.4672 93.7518 29.4672C 93.9837 29.4536 94.202 29.44 94.4066 29.4264C 94.6249 29.4128 94.8091 29.3992 94.9591 29.3856C 94.9591 29.44 94.9659 29.4877 94.9796 29.5285C 94.9796 29.5693 94.9796 29.6033 94.9796 29.6305C 94.9932 29.6578 95 29.685 95 29.7122C 95 29.7938 94.9796 29.8687 94.9387 29.9367C 94.9114 30.0047 94.8636 30.0456 94.7954 30.0592C 94.3998 30.1136 94.1201 30.1816 93.9564 30.2633C 93.8064 30.3313 93.7313 30.4334 93.7313 30.5695C 93.7313 30.6783 93.7791 30.8076 93.8746 30.9573L 96.412 35.5294L 98.8062 31.2839C 98.9426 31.0389 99.0108 30.8484 99.0108 30.7123C 99.0108 30.5354 98.9153 30.3994 98.7243 30.3041C 98.547 30.2089 98.2605 30.1272 97.8649 30.0592C 97.7148 30.0456 97.6398 29.9299 97.6398 29.7122C 97.6398 29.6441 97.6466 29.5829 97.6602 29.5285C 97.6602 29.4877 97.6671 29.44 97.6807 29.3856C 97.9808 29.4128 98.3287 29.44 98.7243 29.4672C 99.1336 29.4809 99.5088 29.4877 99.8498 29.4877C 100.164 29.4877 100.491 29.4809 100.832 29.4672C 101.187 29.44 101.535 29.4128 101.876 29.3856C 101.876 29.44 101.882 29.4877 101.896 29.5285C 101.896 29.5693 101.896 29.6033 101.896 29.6305C 101.91 29.6578 101.917 29.685 101.917 29.7122C 101.917 29.9027 101.842 30.0184 101.691 30.0592C 101.214 30.1272 100.873 30.2157 100.668 30.3245C 100.477 30.4198 100.314 30.5899 100.177 30.8348L 96.8622 36.6929L 96.8622 41.265C 96.8622 41.5644 96.9713 41.7753 97.1896 41.8978C 97.4215 42.0066 97.8035 42.1019 98.3355 42.1835C 98.4856 42.2108 98.5606 42.3196 98.5606 42.5101C 98.5606 42.5373 98.5538 42.5714 98.5402 42.6122C 98.5402 42.653 98.5402 42.687 98.5402 42.7142C 98.5265 42.7687 98.5197 42.8095 98.5197 42.8367C 98.1923 42.8231 97.8717 42.8095 97.5579 42.7959C 97.2851 42.7823 96.9918 42.7687 96.678 42.7551C 96.3779 42.7415 96.1119 42.7347 95.88 42.7347C 95.648 42.7347 95.382 42.7415 95.0819 42.7551C 94.7818 42.7687 94.4953 42.7823 94.2224 42.7959C 93.9087 42.8095 93.5949 42.8231 93.2812 42.8367C 93.2675 42.8095 93.2607 42.7687 93.2607 42.7142C 93.247 42.687 93.2402 42.653 93.2402 42.6122C 93.2402 42.5714 93.2402 42.5373 93.2402 42.5101C 93.2402 42.3196 93.3084 42.2108 93.4448 42.1835C 93.9769 42.0747 94.3589 41.9726 94.5908 41.8774C 94.8227 41.7685 94.9387 41.5644 94.9387 41.265L 94.9387 36.8766Z"/>
<path id="path14_fill" d="M 110.973 32.6922C 110.837 32.7195 110.735 32.7331 110.666 32.7331C 110.489 32.7331 110.36 32.6991 110.278 32.631C 110.196 32.563 110.134 32.4881 110.094 32.4065C 109.739 31.6309 109.316 31.0661 108.825 30.7123C 108.334 30.3585 107.665 30.1816 106.819 30.1816C 106.492 30.1816 106.178 30.2293 105.878 30.3245C 105.592 30.4062 105.339 30.5354 105.121 30.7123C 104.903 30.8756 104.725 31.0797 104.589 31.3247C 104.466 31.5696 104.405 31.8418 104.405 32.1411C 104.405 32.7807 104.671 33.3046 105.203 33.7128C 105.749 34.121 106.547 34.5361 107.597 34.9579C 108.907 35.475 109.868 36.0533 110.482 36.6929C 111.11 37.3188 111.424 38.0945 111.424 39.0198C 111.424 39.5777 111.335 40.1016 111.158 40.5915C 110.994 41.0677 110.728 41.4896 110.36 41.857C 110.005 42.2108 109.541 42.4897 108.968 42.6938C 108.395 42.8979 107.706 43 106.901 43C 106.055 43 105.285 42.9116 104.589 42.7347C 103.907 42.5578 103.327 42.3264 102.85 42.0407C 102.809 41.4691 102.747 40.918 102.665 40.3873C 102.584 39.8566 102.488 39.326 102.379 38.7953C 102.474 38.7544 102.59 38.734 102.727 38.734C 102.891 38.734 103.013 38.7748 103.095 38.8565C 103.191 38.9245 103.272 39.0402 103.341 39.2035C 103.682 40.1832 104.118 40.9044 104.65 41.3671C 105.196 41.8297 105.953 42.0611 106.922 42.0611C 107.358 42.0611 107.74 41.9998 108.068 41.8774C 108.395 41.7549 108.668 41.5848 108.886 41.3671C 109.104 41.1494 109.268 40.9044 109.377 40.6323C 109.486 40.3601 109.541 40.0676 109.541 39.7546C 109.541 39.047 109.295 38.4891 108.804 38.0809C 108.327 37.6726 107.638 37.3052 106.738 36.9786C 106.151 36.7609 105.619 36.5364 105.141 36.3051C 104.664 36.0601 104.255 35.7812 103.914 35.4682C 103.573 35.1552 103.307 34.7946 103.116 34.3864C 102.938 33.9646 102.85 33.4679 102.85 32.8964C 102.85 32.3929 102.938 31.9234 103.116 31.488C 103.307 31.0389 103.573 30.6511 103.914 30.3245C 104.268 29.9979 104.691 29.7394 105.182 29.5489C 105.673 29.3584 106.226 29.2631 106.84 29.2631C 107.481 29.2631 108.095 29.3244 108.682 29.4468C 109.268 29.5693 109.93 29.7734 110.666 30.0592C 110.694 30.4674 110.728 30.9097 110.769 31.3859C 110.823 31.8486 110.892 32.284 110.973 32.6922Z"/>
<path id="path15_fill" d="M 119.577 30.3245L 119.577 41.2242C 119.577 41.5372 119.707 41.7617 119.966 41.8978C 120.225 42.0203 120.662 42.1155 121.276 42.1835C 121.426 42.1835 121.501 42.2924 121.501 42.5101C 121.501 42.6054 121.487 42.721 121.46 42.8571C 121.023 42.8299 120.56 42.8027 120.068 42.7755C 119.591 42.7619 119.107 42.7551 118.616 42.7551C 118.138 42.7551 117.647 42.7619 117.142 42.7755C 116.651 42.8027 116.187 42.8299 115.751 42.8571C 115.723 42.721 115.71 42.6054 115.71 42.5101C 115.71 42.3196 115.778 42.2108 115.914 42.1835C 116.528 42.1019 116.972 41.9998 117.245 41.8774C 117.517 41.7549 117.654 41.5372 117.654 41.2242L 117.654 30.3245L 115.546 30.3245C 115.137 30.3245 114.789 30.3653 114.503 30.447C 114.23 30.5286 113.991 30.6511 113.786 30.8144C 113.582 30.9777 113.404 31.1886 113.254 31.4472C 113.104 31.7057 112.947 32.0051 112.784 32.3453C 112.756 32.4133 112.709 32.4609 112.64 32.4881C 112.586 32.5154 112.531 32.529 112.477 32.529C 112.327 32.529 112.197 32.4881 112.088 32.4065C 112.224 31.9166 112.327 31.4812 112.395 31.1002C 112.463 30.7191 112.524 30.4062 112.579 30.1612C 112.634 29.9027 112.688 29.7054 112.743 29.5693C 112.811 29.4332 112.913 29.3652 113.05 29.3652C 113.145 29.3652 113.282 29.372 113.459 29.3856C 113.636 29.3992 113.82 29.4128 114.011 29.4264C 114.216 29.44 114.421 29.4536 114.625 29.4672C 114.83 29.4809 115.021 29.4877 115.198 29.4877L 122.033 29.4877C 122.197 29.4877 122.381 29.4809 122.585 29.4672C 122.79 29.4536 122.995 29.44 123.199 29.4264C 123.404 29.4128 123.588 29.3992 123.752 29.3856C 123.929 29.372 124.072 29.3652 124.182 29.3652C 124.318 29.3652 124.413 29.44 124.468 29.5897C 124.536 29.7258 124.598 29.9231 124.652 30.1816C 124.707 30.4402 124.761 30.76 124.816 31.141C 124.884 31.522 124.993 31.9438 125.143 32.4065C 125.075 32.4337 125.007 32.4609 124.939 32.4881C 124.884 32.5154 124.816 32.529 124.734 32.529C 124.68 32.529 124.618 32.5154 124.55 32.4881C 124.482 32.4609 124.434 32.4133 124.407 32.3453C 124.257 32.0051 124.107 31.7057 123.956 31.4472C 123.806 31.1886 123.629 30.9777 123.424 30.8144C 123.233 30.6511 122.995 30.5286 122.708 30.447C 122.435 30.3653 122.094 30.3245 121.685 30.3245L 119.577 30.3245Z"/>
<path id="path16_fill" d="M 129.657 30.3245L 129.657 35.5498L 132.849 35.5498C 133.122 35.5498 133.313 35.4206 133.422 35.162C 133.545 34.8899 133.641 34.5633 133.709 34.1823C 133.75 34.0054 133.872 33.9169 134.077 33.9169C 134.118 33.9169 134.173 33.9237 134.241 33.9373C 134.309 33.951 134.364 33.9646 134.404 33.9782C 134.377 34.2775 134.35 34.6177 134.323 34.9987C 134.309 35.3798 134.302 35.7131 134.302 35.9989C 134.302 36.2302 134.309 36.516 134.323 36.8562C 134.336 37.1828 134.364 37.557 134.404 37.9788C 134.295 38.006 134.193 38.0196 134.098 38.0196C 133.879 38.0196 133.75 37.9312 133.709 37.7543C 133.641 37.3733 133.545 37.0535 133.422 36.7949C 133.313 36.5228 133.122 36.3867 132.849 36.3867L 129.657 36.3867L 129.657 41.2038C 129.657 41.4896 129.841 41.6801 130.21 41.7753C 130.578 41.8706 131.185 41.9182 132.031 41.9182L 133.156 41.9182C 133.552 41.9182 133.893 41.8638 134.179 41.7549C 134.48 41.6324 134.739 41.4759 134.957 41.2854C 135.189 41.0813 135.394 40.8432 135.571 40.571C 135.748 40.2989 135.919 39.9995 136.082 39.6729C 136.123 39.5777 136.226 39.5301 136.389 39.5301C 136.458 39.5301 136.526 39.5505 136.594 39.5913C 136.676 39.6321 136.751 39.6729 136.819 39.7138C 136.696 39.9723 136.587 40.2853 136.492 40.6527C 136.41 41.0065 136.328 41.3467 136.246 41.6733C 136.164 41.9998 136.076 42.2788 135.98 42.5101C 135.898 42.7415 135.789 42.8571 135.653 42.8571C 135.544 42.8571 135.387 42.8503 135.182 42.8367C 134.977 42.8231 134.752 42.8095 134.507 42.7959C 134.275 42.7959 134.036 42.7891 133.791 42.7755C 133.545 42.7619 133.334 42.7551 133.156 42.7551L 128.675 42.7551C 128.279 42.7551 127.856 42.7619 127.406 42.7755C 126.956 42.8027 126.526 42.8299 126.117 42.8571C 126.09 42.721 126.076 42.6122 126.076 42.5305C 126.076 42.34 126.144 42.2312 126.281 42.204C 126.799 42.1087 127.167 42.0066 127.386 41.8978C 127.618 41.7889 127.734 41.5984 127.734 41.3263L 127.734 30.9369C 127.734 30.6647 127.631 30.481 127.427 30.3858C 127.236 30.2769 126.854 30.168 126.281 30.0592C 126.144 30.032 126.076 29.9163 126.076 29.7122C 126.076 29.6441 126.076 29.5897 126.076 29.5489C 126.09 29.4945 126.103 29.44 126.117 29.3856C 126.704 29.4264 127.195 29.4536 127.59 29.4672C 127.986 29.4809 128.341 29.4877 128.654 29.4877L 132.686 29.4877C 133.3 29.4877 133.832 29.4672 134.282 29.4264C 134.732 29.3856 135.032 29.3652 135.182 29.3652C 135.359 29.3652 135.475 29.4809 135.53 29.7122C 135.598 29.9299 135.653 30.1953 135.694 30.5082C 135.735 30.8212 135.782 31.1546 135.837 31.5084C 135.891 31.8622 135.994 32.1616 136.144 32.4065C 136.035 32.4881 135.912 32.529 135.776 32.529C 135.598 32.529 135.482 32.4677 135.428 32.3453C 135.264 31.9915 135.107 31.6921 134.957 31.4472C 134.807 31.1886 134.63 30.9777 134.425 30.8144C 134.234 30.6511 133.995 30.5286 133.709 30.447C 133.436 30.3653 133.095 30.3245 132.686 30.3245L 129.657 30.3245Z"/>
<path id="path17_fill" d="M 151.051 29.8755C 151.078 29.821 151.105 29.7666 151.132 29.7122C 151.173 29.6578 151.235 29.6169 151.317 29.5897C 151.398 29.5625 151.508 29.5421 151.644 29.5285C 151.78 29.5013 151.971 29.4877 152.217 29.4877C 152.326 29.4877 152.469 29.4877 152.647 29.4877C 152.824 29.4741 153.015 29.4672 153.22 29.4672C 153.424 29.4536 153.629 29.44 153.834 29.4264C 154.052 29.4128 154.25 29.3992 154.427 29.3856C 154.454 29.5217 154.468 29.6305 154.468 29.7122C 154.468 29.9299 154.4 30.0456 154.263 30.0592C 153.772 30.1272 153.445 30.2225 153.281 30.3449C 153.117 30.4538 153.036 30.6035 153.036 30.794C 153.036 30.8076 153.042 30.9913 153.056 31.3451C 153.083 31.6853 153.117 32.2636 153.158 33.0801C 153.199 33.8829 153.247 34.9579 153.302 36.3051C 153.37 37.6522 153.445 39.326 153.527 41.3263C 153.54 41.5848 153.629 41.7753 153.793 41.8978C 153.956 42.0203 154.291 42.1223 154.795 42.204C 154.864 42.2176 154.911 42.2584 154.939 42.3264C 154.98 42.3809 155 42.4489 155 42.5305C 155 42.6122 154.986 42.721 154.959 42.8571C 154.482 42.8299 154.045 42.8027 153.649 42.7755C 153.267 42.7619 152.913 42.7551 152.585 42.7551C 152.449 42.7551 152.278 42.7551 152.074 42.7551C 151.869 42.7687 151.651 42.7755 151.419 42.7755C 151.201 42.7891 150.982 42.8027 150.764 42.8163C 150.546 42.8299 150.355 42.8435 150.191 42.8571C 150.164 42.721 150.15 42.6122 150.15 42.5305C 150.15 42.3128 150.218 42.204 150.355 42.204C 150.901 42.0951 151.276 41.9862 151.48 41.8774C 151.685 41.7685 151.78 41.5848 151.767 41.3263C 151.767 41.2854 151.753 41.0337 151.726 40.571C 151.712 40.1084 151.685 39.5437 151.644 38.8769C 151.617 38.2101 151.583 37.4889 151.542 36.7133C 151.514 35.9377 151.48 35.2097 151.439 34.5293C 151.412 33.8353 151.385 33.2434 151.358 32.7535C 151.33 32.25 151.317 31.9438 151.317 31.835L 146.835 42.6326C 146.781 42.7551 146.726 42.8435 146.672 42.8979C 146.631 42.966 146.569 43 146.487 43C 146.392 43 146.33 42.9932 146.303 42.9796L 141.29 31.5084C 141.276 31.6445 141.256 31.9778 141.228 32.5085C 141.215 33.0256 141.187 33.6448 141.146 34.366C 141.119 35.0872 141.085 35.8492 141.044 36.6521C 141.003 37.4549 140.962 38.1965 140.921 38.8769C 140.894 39.5573 140.867 40.1288 140.84 40.5915C 140.826 41.0541 140.819 41.2991 140.819 41.3263C 140.819 41.7481 141.283 42.0407 142.211 42.204C 142.347 42.2176 142.415 42.3264 142.415 42.5305C 142.415 42.6122 142.402 42.721 142.374 42.8571C 142.006 42.8299 141.644 42.8027 141.29 42.7755C 140.935 42.7619 140.621 42.7551 140.348 42.7551C 140.13 42.7551 139.837 42.7619 139.468 42.7755C 139.1 42.8027 138.752 42.8299 138.425 42.8571C 138.398 42.721 138.384 42.6122 138.384 42.5305C 138.384 42.34 138.452 42.2312 138.589 42.204C 138.957 42.1359 139.25 42.0407 139.468 41.9182C 139.7 41.7821 139.83 41.5848 139.857 41.3263C 139.857 41.2038 139.871 40.8636 139.898 40.3057C 139.925 39.7342 139.953 39.0606 139.98 38.285C 140.021 37.5093 140.062 36.6861 140.103 35.8152C 140.144 34.9443 140.178 34.1415 140.205 33.4066C 140.246 32.6582 140.273 32.0459 140.287 31.5696C 140.314 31.0797 140.328 30.828 140.328 30.8144C 140.328 30.5967 140.239 30.4402 140.062 30.3449C 139.898 30.2361 139.578 30.1408 139.1 30.0592C 138.964 30.0456 138.896 29.9299 138.896 29.7122C 138.896 29.6305 138.909 29.5217 138.936 29.3856C 139.114 29.3992 139.312 29.4128 139.53 29.4264C 139.762 29.44 139.987 29.4536 140.205 29.4672C 140.437 29.4672 140.655 29.4741 140.86 29.4877C 141.065 29.4877 141.228 29.4877 141.351 29.4877C 141.597 29.4877 141.788 29.5013 141.924 29.5285C 142.06 29.5421 142.17 29.5625 142.251 29.5897C 142.333 29.6169 142.388 29.6578 142.415 29.7122C 142.456 29.7666 142.49 29.821 142.518 29.8755L 146.897 40.0608L 151.051 29.8755Z"/>
<path id="path18_fill" fill-rule="evenodd" d="M 152.621 1.70095L 0 1.70095L 0 0L 152.621 0L 152.621 1.70095Z"/>
<path id="path19_fill" d="M 13.5295 9.24655C 12.8676 10.3055 11.9884 11.1185 10.8916 11.6858C 9.81382 12.2342 8.56582 12.5084 7.14764 12.5084C 6.08873 12.5084 5.12436 12.3571 4.25455 12.0545C 3.38473 11.7331 2.62836 11.2982 1.98545 10.7498C 1.36145 10.1825 0.869818 9.52073 0.510545 8.76436C 0.170182 7.98909 0 7.15709 0 6.26836C 0 5.37964 0.170182 4.55709 0.510545 3.80073C 0.869818 3.02545 1.36145 2.36364 1.98545 1.81527C 2.62836 1.248 3.38473 0.803636 4.25455 0.482181C 5.12436 0.160727 6.08873 0 7.14764 0C 8.45236 0 9.62473 0.245818 10.6647 0.737455C 11.7236 1.21018 12.5745 1.89091 13.2175 2.77964L 11.7425 3.80073C 11.2509 3.13891 10.608 2.62836 9.81382 2.26909C 9.03855 1.89091 8.14982 1.70182 7.14764 1.70182C 6.37236 1.70182 5.66327 1.81527 5.02036 2.04218C 4.39636 2.26909 3.848 2.59055 3.37527 3.00655C 2.90255 3.40364 2.53382 3.88582 2.26909 4.45309C 2.02327 5.00145 1.90036 5.59709 1.90036 6.24C 1.90036 6.88291 2.03273 7.488 2.29745 8.05527C 2.56218 8.60364 2.92145 9.08582 3.37527 9.50182C 3.848 9.89891 4.40582 10.2109 5.04873 10.4378C 5.69164 10.6647 6.39127 10.7782 7.14764 10.7782C 9.22764 10.7782 10.8633 9.92727 12.0545 8.22545L 13.5295 9.24655Z"/>
<path id="path20_fill" d="M 30.81 10.7782C 31.6231 10.7782 32.3605 10.6647 33.0224 10.4378C 33.6842 10.192 34.2515 9.87055 34.7242 9.47346C 35.1969 9.05746 35.5562 8.57527 35.802 8.02691C 36.0478 7.45964 36.1707 6.864 36.1707 6.24C 36.1707 5.616 36.0384 5.02982 35.7736 4.48146C 35.5278 3.91418 35.1685 3.432 34.6958 3.03491C 34.242 2.61891 33.6842 2.29745 33.0224 2.07054C 32.3605 1.82473 31.6231 1.70182 30.81 1.70182C 29.9969 1.70182 29.2595 1.82473 28.5976 2.07054C 27.9547 2.29745 27.3969 2.61891 26.9242 3.03491C 26.4704 3.432 26.1111 3.90473 25.8464 4.45309C 25.6005 5.00145 25.4776 5.59709 25.4776 6.24C 25.4776 6.88291 25.6005 7.47855 25.8464 8.02691C 26.1111 8.57527 26.4704 9.05746 26.9242 9.47346C 27.3969 9.87055 27.9547 10.192 28.5976 10.4378C 29.2595 10.6647 29.9969 10.7782 30.81 10.7782ZM 30.81 12.5084C 29.7322 12.5084 28.7489 12.3476 27.8602 12.0262C 26.9715 11.7047 26.2056 11.2604 25.5627 10.6931C 24.9387 10.1258 24.4471 9.464 24.0878 8.70764C 23.7475 7.93236 23.5773 7.10982 23.5773 6.24C 23.5773 5.37018 23.7475 4.55709 24.0878 3.80073C 24.4471 3.02545 24.9387 2.36364 25.5627 1.81527C 26.2056 1.248 26.9715 0.803636 27.8602 0.482181C 28.7489 0.160727 29.7322 0 30.81 0C 31.9067 0 32.8995 0.160727 33.7882 0.482181C 34.6769 0.803636 35.4333 1.248 36.0573 1.81527C 36.7002 2.36364 37.1918 3.016 37.5322 3.77236C 37.8915 4.52873 38.0711 5.35127 38.0711 6.24C 38.0711 7.12873 37.8915 7.95127 37.5322 8.70764C 37.1918 9.464 36.7002 10.1258 36.0573 10.6931C 35.4333 11.2604 34.6769 11.7047 33.7882 12.0262C 32.8995 12.3476 31.9067 12.5084 30.81 12.5084Z"/>
<path id="path21_fill" d="M 56.9537 5.24727C 58.2585 5.24727 58.9108 4.70836 58.9108 3.63055C 58.9108 2.57164 58.2585 2.04218 56.9537 2.04218L 50.657 2.04218L 50.657 5.24727L 56.9537 5.24727ZM 50.657 12.1396L 48.8134 12.1396L 48.8134 0.340363L 56.9537 0.340363C 58.1639 0.340363 59.1094 0.633455 59.7901 1.21964C 60.4708 1.78691 60.8112 2.59055 60.8112 3.63055C 60.8112 4.46255 60.5465 5.19055 60.017 5.81455C 59.5065 6.41964 58.7974 6.79782 57.8897 6.94909L 61.1799 12.1396L 59.1661 12.1396L 55.8192 6.97745L 50.657 6.97745L 50.657 12.1396Z"/>
<path id="path22_fill" d="M 8.28528 36.7782C 9.09838 36.7782 9.83583 36.6647 10.4976 36.4378C 11.1595 36.192 11.7267 35.8705 12.1995 35.4735C 12.6722 35.0575 13.0315 34.5753 13.2773 34.0269C 13.5231 33.4596 13.646 32.864 13.646 32.24C 13.646 31.616 13.5136 31.0298 13.2489 30.4815C 13.0031 29.9142 12.6438 29.432 12.1711 29.0349C 11.7173 28.6189 11.1595 28.2975 10.4976 28.0705C 9.83583 27.8247 9.09838 27.7018 8.28528 27.7018C 7.47219 27.7018 6.73474 27.8247 6.07292 28.0705C 5.43001 28.2975 4.87219 28.6189 4.39947 29.0349C 3.94565 29.432 3.58638 29.9047 3.32165 30.4531C 3.07583 31.0015 2.95292 31.5971 2.95292 32.24C 2.95292 32.8829 3.07583 33.4785 3.32165 34.0269C 3.58638 34.5753 3.94565 35.0575 4.39947 35.4735C 4.87219 35.8705 5.43001 36.192 6.07292 36.4378C 6.73474 36.6647 7.47219 36.7782 8.28528 36.7782ZM 8.28528 38.5084C 7.20747 38.5084 6.22419 38.3476 5.33547 38.0262C 4.44674 37.7047 3.68092 37.2604 3.03801 36.6931C 2.41401 36.1258 1.92238 35.464 1.5631 34.7076C 1.22274 33.9324 1.05256 33.1098 1.05256 32.24C 1.05256 31.3702 1.22274 30.5571 1.5631 29.8007C 1.92238 29.0255 2.41401 28.3636 3.03801 27.8153C 3.68092 27.248 4.44674 26.8036 5.33547 26.4822C 6.22419 26.1607 7.20747 26 8.28528 26C 9.38201 26 10.3747 26.1607 11.2635 26.4822C 12.1522 26.8036 12.9086 27.248 13.5326 27.8153C 14.1755 28.3636 14.6671 29.016 15.0075 29.7724C 15.3667 30.5287 15.5464 31.3513 15.5464 32.24C 15.5464 33.1287 15.3667 33.9513 15.0075 34.7076C 14.6671 35.464 14.1755 36.1258 13.5326 36.6931C 12.9086 37.2604 12.1522 37.7047 11.2635 38.0262C 10.3747 38.3476 9.38201 38.5084 8.28528 38.5084Z"/>
<path id="path23_fill" d="M 32.3868 28.0422L 25.4094 28.0422L 25.4094 26.312L 35.7905 26.312L 28.0756 36.4378L 35.7338 36.4378L 35.7338 38.1396L 24.7287 38.1396L 32.3868 28.0422Z"/>
<path id="path24_fill" d="M 52.9192 36.7782C 53.7323 36.7782 54.4698 36.6647 55.1316 36.4378C 55.7934 36.192 56.3607 35.8705 56.8334 35.4735C 57.3061 35.0575 57.6654 34.5753 57.9112 34.0269C 58.1571 33.4596 58.28 32.864 58.28 32.24C 58.28 31.616 58.1476 31.0298 57.8829 30.4815C 57.6371 29.9142 57.2778 29.432 56.8051 29.0349C 56.3512 28.6189 55.7934 28.2975 55.1316 28.0705C 54.4698 27.8247 53.7323 27.7018 52.9192 27.7018C 52.1061 27.7018 51.3687 27.8247 50.7069 28.0705C 50.064 28.2975 49.5061 28.6189 49.0334 29.0349C 48.5796 29.432 48.2203 29.9047 47.9556 30.4531C 47.7098 31.0015 47.5869 31.5971 47.5869 32.24C 47.5869 32.8829 47.7098 33.4785 47.9556 34.0269C 48.2203 34.5753 48.5796 35.0575 49.0334 35.4735C 49.5061 35.8705 50.064 36.192 50.7069 36.4378C 51.3687 36.6647 52.1061 36.7782 52.9192 36.7782ZM 52.9192 38.5084C 51.8414 38.5084 50.8581 38.3476 49.9694 38.0262C 49.0807 37.7047 48.3149 37.2604 47.672 36.6931C 47.048 36.1258 46.5563 35.464 46.1971 34.7076C 45.8567 33.9324 45.6865 33.1098 45.6865 32.24C 45.6865 31.3702 45.8567 30.5571 46.1971 29.8007C 46.5563 29.0255 47.048 28.3636 47.672 27.8153C 48.3149 27.248 49.0807 26.8036 49.9694 26.4822C 50.8581 26.1607 51.8414 26 52.9192 26C 54.016 26 55.0087 26.1607 55.8974 26.4822C 56.7861 26.8036 57.5425 27.248 58.1665 27.8153C 58.8094 28.3636 59.3011 29.016 59.6414 29.7724C 60.0007 30.5287 60.1803 31.3513 60.1803 32.24C 60.1803 33.1287 60.0007 33.9513 59.6414 34.7076C 59.3011 35.464 58.8094 36.1258 58.1665 36.6931C 57.5425 37.2604 56.7861 37.7047 55.8974 38.0262C 55.0087 38.3476 54.016 38.5084 52.9192 38.5084Z"/>
<path id="path25_fill" fill-rule="evenodd" d="M 57.9091 113.455C 88.586 113.455 113.455 88.586 113.455 57.9091C 113.455 27.2322 88.586 2.36364 57.9091 2.36364C 27.2322 2.36364 2.36364 27.2322 2.36364 57.9091C 2.36364 88.586 27.2322 113.455 57.9091 113.455ZM 57.9091 115.818C 89.8914 115.818 115.818 89.8914 115.818 57.9091C 115.818 25.9268 89.8914 0 57.9091 0C 25.9268 0 0 25.9268 0 57.9091C 0 89.8914 25.9268 115.818 57.9091 115.818Z"/>
<path id="path26_fill" fill-rule="evenodd" d="M 65 127.636C 99.5931 127.636 127.636 99.5931 127.636 65C 127.636 30.4069 99.5931 2.36364 65 2.36364C 30.4069 2.36364 2.36364 30.4069 2.36364 65C 2.36364 99.5931 30.4069 127.636 65 127.636ZM 65 130C 100.899 130 130 100.899 130 65C 130 29.1015 100.899 0 65 0C 29.1015 0 0 29.1015 0 65C 0 100.899 29.1015 130 65 130Z"/>
</defs>
</svg>
