<svg width="40" height="21" viewBox="0 0 40 21" version="1.1" xmlns="http://www.w3.org/2000/svg" xmlns:xlink="http://www.w3.org/1999/xlink">
<title>Group</title>
<desc>Created using Figma</desc>
<g id="Canvas" transform="translate(-9188 -3427)">
<g id="Group">
<g id="Component">
<g id="Vector">
<use xlink:href="#path0_fill" transform="translate(9190.64 3427.81)" fill="#FFFFFF"/>
</g>
<g id="Vector">
<use xlink:href="#path1_fill" transform="translate(9208.73 3428.07)" fill="#FFFFFF"/>
</g>
<g id="Vector">
<use xlink:href="#path2_fill" transform="translate(9205.11 3444.12)" fill="#FFFFFF"/>
</g>
<g id="Vector">
<use xlink:href="#path3_fill" transform="matrix(-1 -1.12785e-16 1.32975e-16 -1 9210.89 3446.73)" fill="#FFFFFF"/>
</g>
</g>
</g>
</g>
<defs>
<path id="path0_fill" d="M 13.1131 1.21727C 12.9391 1.1532 12.6261 0.993034 12.3478 0.8649C 11.5131 0.512534 10.3652 0 8.62609 0C 3.93044 0 0 2.94707 0 6.47074C 0 9.9944 3.93044 12.9415 8.62609 12.9415C 10.4696 12.9415 11.7565 12.3649 12.5913 11.9805C 12.7652 11.9164 12.9044 11.8203 13.0783 11.7562L 13.7739 12.493L 15.2 12.493L 15.2 7.75207L 13.7739 7.75207C 13.7739 9.48187 11.6522 11.8523 8.62609 11.8523C 4.76522 11.8523 3.96522 8.9373 3.96522 6.47074C 3.96522 4.00417 4.76522 1.08913 8.62609 1.08913C 11.6522 1.08913 13.7739 3.2674 13.7739 4.83704L 15.2 4.83704L 15.2 0.4805L 13.7739 0.4805L 13.1131 1.21727Z"/>
<path id="path1_fill" d="M 16.2435 0L 0.486957 0L 0 4.2284L 1.42609 4.2284C 1.46087 2.56267 2.67826 1.08913 6.50435 1.08913L 6.53914 1.08913L 6.53914 11.3398L 4.24348 11.3398L 3.89566 12.4289L 12.8 12.4289L 12.4174 11.3398L 10.1565 11.3398L 10.1565 1.08913L 10.1913 1.08913C 14.0174 1.08913 15.2696 2.56267 15.2696 4.2284L 16.6957 4.2284L 16.2435 0Z"/>
<path id="path2_fill" d="M 0 1.59523C 1.49567 2.26793 4.24348 2.17183 7.44348 1.40303L 10.3304 0.762362C 16.2783 -0.454903 20.6261 -0.454904 22.887 2.55623C 20.4522 0.82643 16.9392 0.92253 12.8 1.59523L 8.59133 2.4281C 4.45219 3.22893 1.66958 3.06876 0 1.59523Z"/>
<path id="path3_fill" d="M 0 1.59523C 1.49567 2.26793 4.24348 2.17183 7.44348 1.40303L 10.3304 0.762362C 16.2783 -0.454903 20.6261 -0.454904 22.887 2.55623C 20.4522 0.826429 16.9392 0.92253 12.8 1.59523L 8.59133 2.4281C 4.45219 3.22893 1.66958 3.06876 0 1.59523Z"/>
</defs>
</svg>
