<svg width="54" height="56" viewBox="0 0 54 56" version="1.1" xmlns="http://www.w3.org/2000/svg" xmlns:xlink="http://www.w3.org/1999/xlink">
<title>colour-swatch_stroke</title>
<desc>Created using Figma</desc>
<g id="Canvas" transform="translate(-7898 -4729)">
<g id="colour-swatch_stroke">
<g id="colour swatch">
<g id="Group">
<g id="Group">
<g id="Vector">
<use xlink:href="#path0_fill" transform="translate(7922.87 4763.17)" fill="#D5B779"/>
</g>
<g id="Vector">
<use xlink:href="#path1_fill" transform="translate(7898 4729)" fill="#D5B779"/>
</g>
</g>
</g>
</g>
</g>
</g>
<defs>
<path id="path0_fill" d="M 3.92897 6.12898C 5.62897 5.72898 6.62897 3.92897 6.12897 2.32897C 5.72897 0.628973 3.92898 -0.371023 2.32898 0.128977C 0.628976 0.528977 -0.371025 2.32898 0.128975 3.92898C 0.528975 5.62898 2.22897 6.62898 3.92897 6.12898ZM 2.72898 1.92898C 3.32898 1.72898 4.02897 2.12898 4.12897 2.72898C 4.32897 3.32898 3.92898 4.02898 3.32898 4.22898C 2.72898 4.42898 2.02897 4.02898 1.92897 3.42898C 1.72897 2.72898 2.12898 2.12898 2.72898 1.92898Z"/>
<path id="path1_fill" d="M 54 14.7L 53 14.1L 38.7 5.8L 38.7 4.2L 38.7 3L 37.5 3L 21 3L 19.9 1.1L 19.3 -9.53674e-08L 18.3 0.6L 1 10.6L 0 11.2L 0.6 12.3L 15.1 37.6L 11.5 43.7L 10.9 44.8L 12 45.4L 16.5 48L 16.5 48.9L 16.5 50.1L 17.7 50.1L 20 50.1L 29.2 55.4L 30.2 56L 30.8 55L 33.7 50.2L 37.6 50.2L 38.8 50.2L 38.8 49L 38.8 43.2L 41.7 41.5L 42.7 40.9L 42.1 39.8L 40.9 37.7L 53.4 15.9L 54 14.7ZM 36.3 5.4L 36.3 29.6L 22.4 5.4L 36.3 5.4ZM 16.5 45.1L 14.3 43.8L 16.5 40L 16.5 45.1ZM 18.9 47.6L 18.9 44.1L 20.9 47.6L 18.9 47.6ZM 29.3 52.6L 25.7 50.6L 26.6 50.1L 30.8 50.1L 29.3 52.6ZM 36.3 47.6L 30.8 47.6L 36.3 44.4L 36.3 47.6ZM 24.3 48.6L 3.3 12.1L 18.4 3.3L 39.4 39.8L 24.3 48.6ZM 39.5 35.1L 38.7 33.9L 38.7 8.6L 50.7 15.5L 39.5 35.1Z"/>
</defs>
</svg>
